<?xml version="1.0" standalone="no"?>
<!DOCTYPE svg PUBLIC "-//W3C//DTD SVG 20010904//EN"
 "http://www.w3.org/TR/2001/REC-SVG-20010904/DTD/svg10.dtd">
<svg version="1.0" xmlns="http://www.w3.org/2000/svg"
 width="144.000000pt" height="144.000000pt" viewBox="0 0 144.000000 144.000000"
 preserveAspectRatio="xMidYMid meet">
<metadata>
Created by potrace 1.11, written by Peter Selinger 2001-2013
</metadata>
<g transform="translate(0.000000,144.000000) scale(0.100000,-0.100000)"
fill="#000000" stroke="none">
<path d="M710 1112 c-21 -7 -30 -24 -24 -45 5 -17 -44 -102 -134 -229 l-33
-46 -45 26 c-25 15 -53 32 -62 37 -9 6 -43 25 -74 43 -39 22 -58 40 -58 52 0
22 -32 43 -53 34 -25 -9 -27 -43 -4 -59 24 -17 22 -8 32 -153 3 -63 8 -124 10
-135 3 -12 6 -64 9 -115 3 -52 10 -100 17 -108 14 -18 95 -41 174 -51 80 -10
412 -10 502 0 86 9 166 32 182 51 6 7 14 51 16 97 3 46 8 103 10 127 4 42 18
235 18 260 0 8 10 20 23 28 14 10 20 22 17 34 -11 41 -73 32 -73 -10 0 -13
-35 -39 -113 -84 -63 -36 -118 -66 -124 -66 -9 0 -73 82 -73 93 0 3 -23 38
-50 79 -35 51 -49 79 -46 94 7 25 -21 54 -44 46z"/>
</g>
</svg>
