<svg xmlns="http://www.w3.org/2000/svg" width="24" height="24"><title>background</title><rect fill="none" height="402" width="582" y="-1" x="-1"/><title>Layer 1</title><path fill="#ffffff" d="m23.2 17l-22.5 0c-0.4 0-0.7 0.4-0.7 0.8l0 3.4c0 0.4 0.3 0.8 0.8 0.8l22.5 0c0.4 0 0.8-0.3 0.8-0.8l0-3.4c0-0.4-0.3-0.8-0.7-0.8zm0-8l-22.5 0c-0.4 0-0.7 0.4-0.7 0.8l0 3.4c0 0.4 0.3 0.8 0.8 0.8l22.5 0c0.4 0 0.8-0.3 0.8-0.8l0-3.4c0-0.4-0.3-0.8-0.7-0.8zm0-8l-22.5 0c-0.4 0-0.7 0.4-0.7 0.8l0 3.4c0 0.4 0.3 0.8 0.8 0.8l22.5 0c0.4 0 0.8-0.3 0.8-0.8l0-3.4c0-0.4-0.3-0.8-0.7-0.8z"/></svg>